<svg xmlns="http://www.w3.org/2000/svg" viewBox="0 0 574.37 438.6"><title>Asset 1</title><g id="Layer_2" data-name="Layer 2"><g id="OBJECTS"><path d="M39.4,314.08A33,33,0,0,1,72.29,347h0a60.2,60.2,0,0,0,60,60H496.4a78.2,78.2,0,0,0,78-78h0a78.2,78.2,0,0,0-78-78h-2a15.69,15.69,0,0,1-15.64-15.65h0a15.7,15.7,0,0,1,15.64-15.65H503a38.14,38.14,0,0,0,38-38h0a38.14,38.14,0,0,0-38-38H465.92A33,33,0,0,1,433,110.8h0a60.18,60.18,0,0,0-60-60H126.42a78.19,78.19,0,0,0-78,78h0a78.19,78.19,0,0,0,78,78h0a15.7,15.7,0,0,1,15.65,15.65h0A15.69,15.69,0,0,1,126.42,238h-87C-10.37,238-10.37,314.08,39.4,314.08Z" style="fill:#b4e1f9;fill-rule:evenodd"/><polygon points="244.41 314.5 247.32 314.5 316.22 314.5 319.14 314.5 330.85 390.15 304.5 390.15 259.04 390.15 232.69 390.15 244.41 314.5" style="fill:#edecf5;fill-rule:evenodd"/><path d="M222.15,389.06H341.39a11.39,11.39,0,0,1,11.36,11.36,3.55,3.55,0,0,1-3.53,3.54H214.32a3.55,3.55,0,0,1-3.53-3.54A11.39,11.39,0,0,1,222.15,389.06Z" style="fill:#fff;fill-rule:evenodd"/><rect x="114" y="122.98" width="332.4" height="207.96" rx="11.66" style="fill:#145f91"/><path d="M446.39,313.48v22.35a11.69,11.69,0,0,1-11.66,11.67H125.66A11.7,11.7,0,0,1,114,335.83V313.48Z" style="fill:#fff;fill-rule:evenodd"/><rect x="125.05" y="134.03" width="310.29" height="168.39" style="fill:#b4e1f9"/><path d="M280.2,320.61a9.23,9.23,0,1,1-9.24,9.23A9.23,9.23,0,0,1,280.2,320.61Z" style="fill:#e1dfef;fill-rule:evenodd"/><rect x="376.02" y="290.11" width="144.09" height="97.06" rx="6.5" style="fill:#8dc7e0"/><path d="M446.39,313.48v22.35a11.69,11.69,0,0,1-11.66,11.67H376v-34Z" style="fill:#b4e1f9;fill-rule:evenodd"/><path d="M435.34,290.11v12.31H376v-5.81a6.51,6.51,0,0,1,6.5-6.5Z" style="fill:#8dc7e0;fill-rule:evenodd"/><path d="M555.84,404H7.7A7.72,7.72,0,0,0,0,411.65H0a7.72,7.72,0,0,0,7.7,7.7h26A4.3,4.3,0,0,1,38,423.63h0a4.3,4.3,0,0,1-4.28,4.28h-9.5a5.36,5.36,0,0,0-5.35,5.34h0a5.37,5.37,0,0,0,5.35,5.35H538.53a5.36,5.36,0,0,0,5.34-5.35h0a5.36,5.36,0,0,0-5.34-5.34H531a4.3,4.3,0,0,1-4.28-4.28h0a4.3,4.3,0,0,1,4.28-4.28h24.8a7.72,7.72,0,0,0,7.7-7.7h0a7.72,7.72,0,0,0-7.7-7.69Zm-4,34.64a5.15,5.15,0,0,1-5.14-5.14V433a5.14,5.14,0,0,1,5.14-5.13h0A5.14,5.14,0,0,1,557,433v.42a5.15,5.15,0,0,1-5.13,5.14Z" style="fill:#145f91;fill-rule:evenodd"/><path d="M471,138a3.48,3.48,0,1,0-3.48-3.48A3.48,3.48,0,0,0,471,138Z" style="fill:#fff;fill-rule:evenodd"/><rect x="291.84" y="146.8" width="128.13" height="124.62" rx="6.73" style="fill:#b4e1f9"/><rect x="296.81" y="143.58" width="128.13" height="124.62" rx="6.73" style="fill:#36234d"/><path d="M308.65,148.4H399a2.19,2.19,0,0,1,2.19,2.19v10.68a2.19,2.19,0,0,1-2.19,2.19H308.65a2.2,2.2,0,0,1-2.2-2.2V150.59A2.19,2.19,0,0,1,308.65,148.4Z" style="fill:#fff"/><rect x="405.26" y="148.4" width="14.77" height="15.07" rx="2.15" style="fill:#94d6f2"/><rect x="306.46" y="167.71" width="94.78" height="87.17" rx="3.95" style="fill:#fff"/><path d="M393,173a2.07,2.07,0,1,1-2.06,2.07A2.07,2.07,0,0,1,393,173Zm-15.1,0a2.07,2.07,0,1,1-2.07,2.07,2.06,2.06,0,0,1,2.07-2.07Zm7.55,0a2.07,2.07,0,1,1-2.07,2.07A2.07,2.07,0,0,1,385.4,173Z" style="fill:#ecbe8d;fill-rule:evenodd"/><path d="M320.35,203.32h74a.7.7,0,0,1,.71.7h0a.71.71,0,0,1-.71.71h-74a.71.71,0,0,1-.71-.71h0A.7.7,0,0,1,320.35,203.32Z" style="fill:#c7c2df;fill-rule:evenodd"/><path d="M313.86,205.2a1.18,1.18,0,1,0-1.18-1.18A1.18,1.18,0,0,0,313.86,205.2Z" style="fill:#c7c2df;fill-rule:evenodd"/><path d="M320.35,209.36h74a.71.71,0,0,1,.71.71h0a.71.71,0,0,1-.71.71h-74a.71.71,0,0,1-.71-.71h0A.71.71,0,0,1,320.35,209.36Z" style="fill:#c7c2df;fill-rule:evenodd"/><path d="M313.86,211.25a1.18,1.18,0,1,0-1.18-1.18A1.18,1.18,0,0,0,313.86,211.25Z" style="fill:#c7c2df;fill-rule:evenodd"/><path d="M320.35,215.4h74a.71.71,0,0,1,.71.71h0a.71.71,0,0,1-.71.71h-74a.71.71,0,0,1-.71-.71h0A.71.71,0,0,1,320.35,215.4Z" style="fill:#c7c2df;fill-rule:evenodd"/><path d="M313.86,217.29a1.18,1.18,0,1,0-1.18-1.18A1.18,1.18,0,0,0,313.86,217.29Z" style="fill:#c7c2df;fill-rule:evenodd"/><path d="M320.35,221.45h74a.7.7,0,0,1,.71.7h0a.71.71,0,0,1-.71.71h-74a.71.71,0,0,1-.71-.71h0A.7.7,0,0,1,320.35,221.45Z" style="fill:#c7c2df;fill-rule:evenodd"/><path d="M313.86,223.33a1.18,1.18,0,1,0-1.18-1.18A1.18,1.18,0,0,0,313.86,223.33Z" style="fill:#c7c2df;fill-rule:evenodd"/><path d="M320.35,227.49h74a.71.71,0,0,1,.71.71h0a.7.7,0,0,1-.71.7h-74a.7.7,0,0,1-.71-.7h0A.71.71,0,0,1,320.35,227.49Z" style="fill:#c7c2df;fill-rule:evenodd"/><path d="M313.86,229.38a1.18,1.18,0,1,0-1.18-1.18A1.18,1.18,0,0,0,313.86,229.38Z" style="fill:#c7c2df;fill-rule:evenodd"/><path d="M320.35,233.53h74a.71.71,0,0,1,.71.71h0a.71.71,0,0,1-.71.71h-74a.71.71,0,0,1-.71-.71h0A.71.71,0,0,1,320.35,233.53Z" style="fill:#c7c2df;fill-rule:evenodd"/><path d="M313.86,235.42a1.18,1.18,0,1,0-1.18-1.18A1.18,1.18,0,0,0,313.86,235.42Z" style="fill:#c7c2df;fill-rule:evenodd"/><path d="M320.35,239.58h74a.7.7,0,0,1,.71.7h0a.71.71,0,0,1-.71.71h-74a.71.71,0,0,1-.71-.71h0A.7.7,0,0,1,320.35,239.58Z" style="fill:#c7c2df;fill-rule:evenodd"/><path d="M313.86,241.46a1.18,1.18,0,1,0-1.18-1.18A1.18,1.18,0,0,0,313.86,241.46Z" style="fill:#c7c2df;fill-rule:evenodd"/><path d="M320.35,245.62h74a.71.71,0,0,1,.71.71h0a.7.7,0,0,1-.71.7h-74a.7.7,0,0,1-.71-.7h0A.71.71,0,0,1,320.35,245.62Z" style="fill:#c7c2df;fill-rule:evenodd"/><path d="M313.86,247.51a1.18,1.18,0,1,0-1.18-1.18A1.18,1.18,0,0,0,313.86,247.51Z" style="fill:#c7c2df;fill-rule:evenodd"/><path d="M342.9,195.73H369a1.42,1.42,0,0,1,1.42,1.42v0a1.42,1.42,0,0,1-1.42,1.42H342.9a1.42,1.42,0,0,1-1.42-1.42v0A1.41,1.41,0,0,1,342.9,195.73Z" style="fill:#c7c2df"/><rect x="373.77" y="195.73" width="21.25" height="2.83" rx="1.42" style="fill:#c7c2df"/><path d="M408.8,152.08a4.11,4.11,0,0,1,2.91-1.2h0a4.11,4.11,0,0,1,4.12,4.12h0a4.16,4.16,0,0,1-.82,2.47l2.51,2.51a.59.59,0,1,1-.83.83l-2.51-2.51a4.09,4.09,0,0,1-2.47.82h0a4.11,4.11,0,0,1-4.12-4.12h0a4.1,4.1,0,0,1,1.21-2.92Zm2.92,0a3,3,0,0,0-3,2.95,3,3,0,1,0,5-2.09A2.9,2.9,0,0,0,411.72,152.05Z" style="fill:#fff;fill-rule:evenodd"/><path d="M316.87,157.92h74a.71.71,0,0,1,.71.71h0a.71.71,0,0,1-.71.71h-74a.71.71,0,0,1-.71-.71h0A.71.71,0,0,1,316.87,157.92Z" style="fill:#36234d;fill-rule:evenodd"/><path d="M342.38,173h16.55a1,1,0,0,1,.89,1.06h0a1,1,0,0,1-.89,1.06H342.38a1,1,0,0,1-.9-1.06h0A1,1,0,0,1,342.38,173Z" style="fill:#8f87a9;fill-rule:evenodd"/><path d="M342.38,177.7h9.37a1,1,0,0,1,.9,1.06h0a1,1,0,0,1-.9,1.06h-9.37a1,1,0,0,1-.9-1.06h0A1,1,0,0,1,342.38,177.7Z" style="fill:#8f87a9;fill-rule:evenodd"/><path d="M354.94,177.7h1.37a1,1,0,0,1,.89,1.06h0a1,1,0,0,1-.89,1.06h-1.37a1,1,0,0,1-.89-1.06h0A1,1,0,0,1,354.94,177.7Z" style="fill:#8f87a9;fill-rule:evenodd"/><path d="M342.38,190.56h8.42a1,1,0,0,0,.89-1.06h0a1,1,0,0,0-.89-1.06h-8.42a1,1,0,0,0-.9,1.06h0A1,1,0,0,0,342.38,190.56Z" style="fill:#8f87a9;fill-rule:evenodd"/><path d="M342.38,185.9H354a1,1,0,0,0,.89-1.06h0a1,1,0,0,0-.89-1.06H342.38a1,1,0,0,0-.9,1.06h0A1,1,0,0,0,342.38,185.9Z" style="fill:#8f87a9;fill-rule:evenodd"/><path d="M357.48,185.9h2a1,1,0,0,0,.9-1.06h0a1,1,0,0,0-.9-1.06h-2a1,1,0,0,0-.89,1.06h0A1,1,0,0,0,357.48,185.9Z" style="fill:#8f87a9;fill-rule:evenodd"/><rect x="313.83" y="172.76" width="23.58" height="24.93" rx="1.03" style="fill:#36234d"/><path d="M319.14,183.05h13a1.42,1.42,0,0,1,1.4,1.39v8.17a1.42,1.42,0,0,1-1.4,1.4h-13a1.4,1.4,0,0,1-1-.41,1.42,1.42,0,0,1-.41-1v-8.17a1.39,1.39,0,0,1,.41-1,1.36,1.36,0,0,1,1-.41Zm13,1h-13a.46.46,0,0,0-.31.12.44.44,0,0,0-.13.31v8.17a.44.44,0,0,0,.13.31.42.42,0,0,0,.31.13h13a.44.44,0,0,0,.44-.44v-8.17a.44.44,0,0,0-.13-.31A.48.48,0,0,0,332.1,184Z" style="fill:#fff;fill-rule:evenodd"/><path d="M318.45,183.05h14.34a.59.59,0,0,0,.4-.17.6.6,0,0,0,.16-.39V180.4a.6.6,0,0,0-.16-.39.59.59,0,0,0-.4-.17H318.45a.57.57,0,0,0-.4.17.55.55,0,0,0-.16.39v2.09a.55.55,0,0,0,.16.39.57.57,0,0,0,.4.17Zm14.34,1H318.45a1.52,1.52,0,0,1-1.07-.45,1.5,1.5,0,0,1-.45-1.07V180.4a1.54,1.54,0,0,1,1.52-1.52h14.34a1.5,1.5,0,0,1,1.07.45,1.52,1.52,0,0,1,.45,1.07v2.09a1.54,1.54,0,0,1-1.52,1.52Z" style="fill:#fff;fill-rule:evenodd"/><path d="M332,179.36a.38.38,0,0,1-.38.39.39.39,0,0,1-.39-.39v-1.63a1.19,1.19,0,0,0-.36-.87,1.23,1.23,0,0,0-.87-.36h-8.77a1.27,1.27,0,0,0-.87.36,1.23,1.23,0,0,0-.36.87v1.63a.38.38,0,0,1-.38.39.39.39,0,0,1-.39-.39v-1.63a2,2,0,0,1,2-2H330a2,2,0,0,1,1.41.59,2,2,0,0,1,.59,1.41Z" style="fill:#fff;fill-rule:evenodd"/><path d="M324.89,185.6h1.45a.34.34,0,0,1,.34.33v1.44h1.43a.34.34,0,0,1,.34.33v1.45a.34.34,0,0,1-.34.33h-1.43v1.44a.34.34,0,0,1-.34.33h-1.45a.33.33,0,0,1-.33-.33v-1.44h-1.43a.34.34,0,0,1-.34-.33V187.7a.34.34,0,0,1,.34-.33h1.43v-1.44A.33.33,0,0,1,324.89,185.6Z" style="fill:#fff;fill-rule:evenodd"/><path d="M499.89,210.51a29.65,29.65,0,1,0-29.65-29.65A29.71,29.71,0,0,0,499.89,210.51Z" style="fill:#fff;fill-rule:evenodd"/><path d="M499.89,187a3.95,3.95,0,0,1,2.79,6.73h0a3.94,3.94,0,1,1-2.78-6.73Zm-15.05-10.13a1.74,1.74,0,1,1-2.55-2.38,24.07,24.07,0,0,1,35.2,0,1.74,1.74,0,1,1-2.55,2.38,20.58,20.58,0,0,0-30.1,0Zm4.58,4.28a14.53,14.53,0,0,1,4.76-3.37,14.32,14.32,0,0,1,16.18,3.37,1.75,1.75,0,0,0,2.46.09,1.73,1.73,0,0,0,.09-2.46,17.8,17.8,0,0,0-26,0,1.73,1.73,0,0,0,.09,2.46,1.75,1.75,0,0,0,2.46-.09Zm5.25,4.9a1.74,1.74,0,0,1-2.55-2.37,10.51,10.51,0,0,1,3.54-2.5,10.61,10.61,0,0,1,8.46,0,10.51,10.51,0,0,1,3.54,2.5,1.74,1.74,0,1,1-2.55,2.37,7.16,7.16,0,0,0-8.07-1.67A7.08,7.08,0,0,0,494.67,186.05Z" style="fill:#36234d;fill-rule:evenodd"/><rect x="132.85" y="375.71" width="7.53" height="7.53" rx="1.76" style="fill:#8dc7e0"/><rect x="146.77" y="375.71" width="7.53" height="7.53" rx="1.76" style="fill:#fff"/><rect x="160.7" y="375.71" width="7.53" height="7.53" rx="1.76" style="fill:#8dc7e0"/><rect x="174.62" y="375.71" width="7.53" height="7.53" rx="1.76" style="fill:#fff"/><rect x="188.55" y="375.71" width="7.52" height="7.53" rx="1.76" style="fill:#8dc7e0"/><path d="M163,360.53h4a1.75,1.75,0,0,1,1.75,1.75v4a1.75,1.75,0,0,1-1.75,1.75h-4a1.76,1.76,0,0,1-1.76-1.76v-4A1.76,1.76,0,0,1,163,360.53Z" style="fill:#fff"/><rect x="175.12" y="360.53" width="7.52" height="7.53" rx="1.76" style="fill:#8dc7e0"/><rect x="189.05" y="360.53" width="7.52" height="7.53" rx="1.76" style="fill:#fff"/><path d="M254.42,91.7a.93.93,0,1,1,1.85,0v4.17a.93.93,0,1,1-1.85,0V91.7Zm-6.32,3.38a.93.93,0,0,1,0-1.31.94.94,0,0,1,1.32,0l2.94,3a.91.91,0,0,1,0,1.31.93.93,0,0,1-1.31,0l-3-3ZM246,102a.93.93,0,1,1,0-1.86h4.17a.93.93,0,1,1,0,1.86Zm3.39,6.31a.94.94,0,0,1-1.32,0,.93.93,0,0,1,0-1.31l3-3a.93.93,0,0,1,1.31,0,.91.91,0,0,1,0,1.31l-2.94,3Zm6.85,2.08a.93.93,0,0,1-1.85,0v-4.17a.93.93,0,1,1,1.85,0v4.17Zm6.32-3.39a.91.91,0,0,1,0,1.31.93.93,0,0,1-1.31,0l-2.95-3a.93.93,0,0,1,0-1.31.94.94,0,0,1,1.32,0l2.94,3Zm2.08-6.86a.93.93,0,0,1,0,1.86H260.5a.93.93,0,1,1,0-1.86Zm-3.39-6.32a.93.93,0,0,1,1.31,0,.91.91,0,0,1,0,1.31l-2.94,3a.94.94,0,0,1-1.32,0,.93.93,0,0,1,0-1.31Z" style="fill:#8dc7e0;fill-rule:evenodd"/><path d="M72.11,127.69a.93.93,0,0,1,1.85,0v4.17a.93.93,0,1,1-1.85,0v-4.17Zm-6.32,3.39a.93.93,0,1,1,1.31-1.31l3,2.95A.93.93,0,0,1,68.74,134l-2.95-2.95Zm-2.07,6.86a.93.93,0,1,1,0-1.86h4.17a.93.93,0,0,1,0,1.86Zm3.38,6.32A.93.93,0,1,1,65.79,143L68.74,140a.93.93,0,0,1,1.31,1.31l-3,2.95ZM74,146.33a.93.93,0,1,1-1.85,0v-4.17a.93.93,0,1,1,1.85,0v4.17ZM80.28,143A.93.93,0,0,1,79,144.26l-3-2.95A.93.93,0,0,1,77.33,140l3,2.95Zm2.07-6.87a.93.93,0,1,1,0,1.86H78.18a.93.93,0,0,1,0-1.86ZM79,129.77a.93.93,0,0,1,1.31,1.31l-3,2.95A.93.93,0,0,1,76,132.72Z" style="fill:#8dc7e0;fill-rule:evenodd"/><path d="M463,203.53a.93.93,0,0,1,1.86,0v4.17a.93.93,0,0,1-1.86,0v-4.17Zm-6.31,3.38a.91.91,0,0,1,0-1.31.93.93,0,0,1,1.31,0l2.94,3a.91.91,0,0,1,0,1.31.93.93,0,0,1-1.31,0l-2.94-3Zm-2.08,6.86a.93.93,0,0,1,0-1.85h4.17a.93.93,0,1,1,0,1.85Zm3.39,6.32a.93.93,0,0,1-1.31,0,.91.91,0,0,1,0-1.31l2.94-2.95a.93.93,0,0,1,1.31,0,.91.91,0,0,1,0,1.31l-2.94,3Zm6.86,2.07a.93.93,0,1,1-1.86,0V218a.93.93,0,0,1,1.86,0v4.17Zm6.31-3.38a.91.91,0,0,1,0,1.31.93.93,0,0,1-1.31,0l-2.94-3a.91.91,0,0,1,0-1.31.93.93,0,0,1,1.31,0l2.94,2.95Zm2.08-6.86a.93.93,0,0,1,0,1.85H469.1a.93.93,0,1,1,0-1.85Zm-3.39-6.32a.93.93,0,0,1,1.31,0,.91.91,0,0,1,0,1.31l-2.94,3a.93.93,0,0,1-1.31,0,.91.91,0,0,1,0-1.31Z" style="fill:#8dc7e0;fill-rule:evenodd"/><path d="M84.1,162.83a3.48,3.48,0,1,0-3.48-3.47A3.49,3.49,0,0,0,84.1,162.83Z" style="fill:#fff;fill-rule:evenodd"/><path d="M295.32,81.61a3.48,3.48,0,1,0-3.48-3.48A3.48,3.48,0,0,0,295.32,81.61Z" style="fill:#fff;fill-rule:evenodd"/><path d="M461.55,269.61a3.48,3.48,0,1,0-3.48-3.47A3.49,3.49,0,0,0,461.55,269.61Z" style="fill:#fff;fill-rule:evenodd"/><path d="M548.94,307.21a3.48,3.48,0,1,0-3.47-3.48A3.49,3.49,0,0,0,548.94,307.21Z" style="fill:#fff;fill-rule:evenodd"/><path d="M344.37,63.24a.93.93,0,0,1,1.85,0v4.17a.93.93,0,1,1-1.85,0V63.24Zm-6.32,3.39a.93.93,0,0,1,0-1.31.91.91,0,0,1,1.31,0l2.95,2.94a.94.94,0,0,1,0,1.32.93.93,0,0,1-1.31,0l-2.95-3ZM336,73.49a.93.93,0,0,1,0-1.86h4.16a.93.93,0,1,1,0,1.86Zm3.38,6.32a.93.93,0,0,1-1.31,0,.94.94,0,0,1,0-1.32L341,75.55a.91.91,0,0,1,1.31,0,.93.93,0,0,1,0,1.31l-2.95,3Zm6.86,2.07a.93.93,0,1,1-1.85,0V77.71a.93.93,0,1,1,1.85,0v4.17Zm6.32-3.39a.94.94,0,0,1,0,1.32.93.93,0,0,1-1.31,0l-3-3a.93.93,0,0,1,0-1.31.91.91,0,0,1,1.31,0l3,2.94Zm2.07-6.86a.93.93,0,1,1,0,1.86h-4.17a.93.93,0,0,1,0-1.86Zm-3.38-6.31a.91.91,0,0,1,1.31,0,.93.93,0,0,1,0,1.31l-3,3a.93.93,0,0,1-1.31,0,.94.94,0,0,1,0-1.32Z" style="fill:#fff;fill-rule:evenodd"/><path d="M541.91,335.82a.93.93,0,1,1,1.85,0V340a.93.93,0,1,1-1.85,0v-4.17Zm-6.32,3.38a.93.93,0,0,1,0-1.31.94.94,0,0,1,1.32,0l2.94,2.95a.93.93,0,0,1-1.31,1.31l-2.95-2.95Zm-2.07,6.86a.93.93,0,1,1,0-1.85h4.17a.93.93,0,1,1,0,1.85Zm3.39,6.32a.94.94,0,0,1-1.32,0,.93.93,0,0,1,0-1.31l2.95-2.95a.93.93,0,0,1,1.31,1.31l-2.94,2.95Zm6.85,2.08a.93.93,0,0,1-1.85,0v-4.17a.93.93,0,1,1,1.85,0v4.17Zm6.32-3.39a.91.91,0,0,1,0,1.31.93.93,0,0,1-1.31,0l-2.95-2.95a.93.93,0,1,1,1.31-1.31l3,2.95Zm2.08-6.86a.93.93,0,0,1,0,1.85H548a.93.93,0,1,1,0-1.85Zm-3.39-6.32a.93.93,0,0,1,1.31,0,.91.91,0,0,1,0,1.31l-3,2.95a.93.93,0,1,1-1.31-1.31Z" style="fill:#8dc7e0;fill-rule:evenodd"/><path d="M64.33,303.79h1.8a.78.78,0,0,1,.78.78v1.79a.79.79,0,0,1-.79.79H64.33a.79.79,0,0,1-.79-.79v-1.79A.78.78,0,0,1,64.33,303.79Z" style="fill:#8dc7e0"/><path d="M70.55,303.79h1.79a.79.79,0,0,1,.79.79v1.79a.79.79,0,0,1-.79.79H70.55a.79.79,0,0,1-.79-.79v-1.79A.78.78,0,0,1,70.55,303.79Z" style="fill:#fff"/><path d="M76.76,303.79h1.79a.79.79,0,0,1,.79.79v1.79a.79.79,0,0,1-.79.79H76.76a.78.78,0,0,1-.78-.78v-1.8A.78.78,0,0,1,76.76,303.79Z" style="fill:#8dc7e0"/><path d="M83,303.79h1.8a.78.78,0,0,1,.78.78v1.79a.79.79,0,0,1-.79.79H83a.79.79,0,0,1-.79-.79v-1.79A.78.78,0,0,1,83,303.79Z" style="fill:#fff"/><path d="M89.2,303.79H91a.79.79,0,0,1,.79.79v1.79a.79.79,0,0,1-.79.79H89.2a.78.78,0,0,1-.78-.78v-1.8A.78.78,0,0,1,89.2,303.79Z" style="fill:#8dc7e0"/><path d="M77,297h1.79a.78.78,0,0,1,.78.78v1.8a.78.78,0,0,1-.78.78H77a.78.78,0,0,1-.78-.78V297.8A.79.79,0,0,1,77,297Z" style="fill:#fff"/><path d="M83.21,297H85a.79.79,0,0,1,.79.79v1.79a.78.78,0,0,1-.78.78H83.21a.79.79,0,0,1-.79-.79V297.8A.79.79,0,0,1,83.21,297Z" style="fill:#8dc7e0"/><path d="M89.42,297h1.79a.78.78,0,0,1,.78.78v1.8a.78.78,0,0,1-.78.78H89.42a.79.79,0,0,1-.79-.79V297.8A.79.79,0,0,1,89.42,297Z" style="fill:#fff"/><path d="M346.41,104.88h3.17a1.38,1.38,0,0,1,1.38,1.38v3.17a1.39,1.39,0,0,1-1.39,1.39h-3.17a1.39,1.39,0,0,1-1.39-1.39v-3.17A1.39,1.39,0,0,1,346.41,104.88Z" style="fill:#8dc7e0"/><rect x="356.01" y="104.88" width="5.94" height="5.94" rx="1.39" style="fill:#fff"/><rect x="367" y="104.88" width="5.94" height="5.94" rx="1.39" style="fill:#8dc7e0"/><path d="M379.37,104.88h3.17a1.38,1.38,0,0,1,1.38,1.38v3.17a1.38,1.38,0,0,1-1.38,1.38h-3.17a1.38,1.38,0,0,1-1.38-1.38v-3.17A1.39,1.39,0,0,1,379.37,104.88Z" style="fill:#fff"/><rect x="388.97" y="104.88" width="5.94" height="5.94" rx="1.39" style="fill:#8dc7e0"/><rect x="367.4" y="92.91" width="5.94" height="5.94" rx="1.39" style="fill:#fff"/><path d="M379.77,92.91h3.17a1.39,1.39,0,0,1,1.39,1.39v3.17a1.39,1.39,0,0,1-1.39,1.39h-3.17a1.38,1.38,0,0,1-1.38-1.38V94.29a1.39,1.39,0,0,1,1.39-1.39Z" style="fill:#8dc7e0"/><rect x="389.37" y="92.91" width="5.94" height="5.94" rx="1.39" style="fill:#fff"/><path d="M137.93,79a14.8,14.8,0,0,1,0,29.59H125c-1,3.85-4,4.84-6.86,4.84H97a7.14,7.14,0,0,1-7.11-4.84H77.24a6.1,6.1,0,0,1-.47-12.19c0-.3,0-.59,0-.89A12.15,12.15,0,0,1,88.88,83.38a12,12,0,0,1,5,1.06,21.15,21.15,0,0,1,40.51-5A15.15,15.15,0,0,1,137.93,79Z" style="fill:#8dc7e0;fill-rule:evenodd"/><path d="M138.25,76.29a14.8,14.8,0,0,1,0,29.59H77.55a6.1,6.1,0,0,1-.46-12.19c0-.3,0-.59,0-.89a12.14,12.14,0,0,1,17.1-11.09,21.15,21.15,0,0,1,40.51-5A15.15,15.15,0,0,1,138.25,76.29Z" style="fill:#fff;fill-rule:evenodd"/><path d="M124.09,102.87V90.69h4.11l-9.45-13.2h-1.59l-11,13.2h4.11v.1c0,14.42.42,15.09-10.34,15.09h23.84A12.08,12.08,0,0,0,124.09,102.87Z" style="fill:#e0e7f5;fill-rule:evenodd"/><path d="M125.67,102.87V90.69h4.11l-11-13.2-11,13.2h4.11v.1c0,14.42.42,15.09-10.34,15.09H90.22a7.14,7.14,0,0,0,7.11,4.84h21.12c2.83,0,5.86-1,6.87-4.84A12.08,12.08,0,0,0,125.67,102.87Z" style="fill:#36234d;fill-rule:evenodd"/><rect x="380.56" y="284.02" width="144.09" height="97.06" rx="6.5" style="fill:#36234d"/><rect x="390.12" y="291.88" width="33.34" height="32" rx="3.05" style="fill:#fff"/><path d="M406.79,320.76a12.88,12.88,0,1,0-12.88-12.88A12.9,12.9,0,0,0,406.79,320.76Z" style="fill:#94d6f2;fill-rule:evenodd"/><path d="M413.45,316.32a10.72,10.72,0,0,1-13.32,0,6.69,6.69,0,0,1,6.66-6.45h0a6.69,6.69,0,0,1,6.66,6.45Zm-6.66-17.61A4.79,4.79,0,1,1,402,303.5,4.8,4.8,0,0,1,406.79,298.71Z" style="fill:#fff;fill-rule:evenodd"/><path d="M397.8,328.64h74a.71.71,0,0,1,.7.71h0a.71.71,0,0,1-.7.71h-74a.71.71,0,0,1-.71-.71h0A.71.71,0,0,1,397.8,328.64Z" style="fill:#ebe8f3;fill-rule:evenodd"/><path d="M391.3,330.53a1.18,1.18,0,1,0-1.18-1.18A1.18,1.18,0,0,0,391.3,330.53Z" style="fill:#ebe8f3;fill-rule:evenodd"/><path d="M397.8,334.68h74a.71.71,0,0,1,.7.71h0a.71.71,0,0,1-.7.71h-74a.71.71,0,0,1-.71-.71h0A.71.71,0,0,1,397.8,334.68Z" style="fill:#ebe8f3;fill-rule:evenodd"/><path d="M391.3,336.57a1.18,1.18,0,1,0-1.18-1.18A1.18,1.18,0,0,0,391.3,336.57Z" style="fill:#ebe8f3;fill-rule:evenodd"/><path d="M397.8,340.73h74a.71.71,0,0,1,.7.71h0a.71.71,0,0,1-.7.7h-74a.7.7,0,0,1-.71-.7h0A.71.71,0,0,1,397.8,340.73Z" style="fill:#ebe8f3;fill-rule:evenodd"/><path d="M391.3,342.62a1.19,1.19,0,1,0-1.18-1.18A1.19,1.19,0,0,0,391.3,342.62Z" style="fill:#ebe8f3;fill-rule:evenodd"/><path d="M397.8,346.77h74a.71.71,0,0,1,.7.71h0a.71.71,0,0,1-.7.71h-74a.71.71,0,0,1-.71-.71h0A.71.71,0,0,1,397.8,346.77Z" style="fill:#ebe8f3;fill-rule:evenodd"/><path d="M391.3,348.66a1.18,1.18,0,1,0-1.18-1.18A1.18,1.18,0,0,0,391.3,348.66Z" style="fill:#ebe8f3;fill-rule:evenodd"/><path d="M397.8,352.81h74a.71.71,0,0,1,.7.71h0a.71.71,0,0,1-.7.71h-74a.71.71,0,0,1-.71-.71h0A.71.71,0,0,1,397.8,352.81Z" style="fill:#ebe8f3;fill-rule:evenodd"/><path d="M391.3,354.7a1.18,1.18,0,1,0-1.18-1.18A1.18,1.18,0,0,0,391.3,354.7Z" style="fill:#ebe8f3;fill-rule:evenodd"/><path d="M397.8,358.86h74a.71.71,0,0,1,.7.7h0a.71.71,0,0,1-.7.71h-74a.71.71,0,0,1-.71-.71h0A.7.7,0,0,1,397.8,358.86Z" style="fill:#ebe8f3;fill-rule:evenodd"/><path d="M391.3,360.75a1.19,1.19,0,1,0-1.18-1.18A1.19,1.19,0,0,0,391.3,360.75Z" style="fill:#ebe8f3;fill-rule:evenodd"/><path d="M397.8,364.9h74a.71.71,0,0,1,.7.71h0a.71.71,0,0,1-.7.71h-74a.71.71,0,0,1-.71-.71h0A.71.71,0,0,1,397.8,364.9Z" style="fill:#ebe8f3;fill-rule:evenodd"/><path d="M391.3,366.79a1.18,1.18,0,1,0-1.18-1.18A1.18,1.18,0,0,0,391.3,366.79Z" style="fill:#ebe8f3;fill-rule:evenodd"/><path d="M397.8,370.94h74a.71.71,0,0,1,.7.71h0a.71.71,0,0,1-.7.71h-74a.71.71,0,0,1-.71-.71h0A.71.71,0,0,1,397.8,370.94Z" style="fill:#ebe8f3;fill-rule:evenodd"/><path d="M391.3,372.83a1.18,1.18,0,1,0-1.18-1.18A1.18,1.18,0,0,0,391.3,372.83Z" style="fill:#ebe8f3;fill-rule:evenodd"/><path d="M429.11,321.05h21.67a1.32,1.32,0,0,1,1.18,1.42h0a1.31,1.31,0,0,1-1.18,1.41H429.11a1.31,1.31,0,0,1-1.18-1.41h0A1.32,1.32,0,0,1,429.11,321.05Z" style="fill:#ebe8f3;fill-rule:evenodd"/><path d="M456,321.05h15.32a1.32,1.32,0,0,1,1.17,1.42h0a1.31,1.31,0,0,1-1.17,1.41H456a1.31,1.31,0,0,1-1.18-1.41h0A1.32,1.32,0,0,1,456,321.05Z" style="fill:#ebe8f3;fill-rule:evenodd"/><path d="M482.42,291.88h31.92a3.76,3.76,0,0,1,3.76,3.76v73a3.76,3.76,0,0,1-3.76,3.76H482.41a3.75,3.75,0,0,1-3.75-3.75v-73A3.76,3.76,0,0,1,482.42,291.88Z" style="fill:#fff"/><path d="M430.81,291.88h38.51a2.37,2.37,0,0,1,2.37,2.37v20.2a2.37,2.37,0,0,1-2.37,2.37h-38.5a2.38,2.38,0,0,1-2.38-2.38v-20.2A2.37,2.37,0,0,1,430.81,291.88Z" style="fill:#94d6f2"/><path d="M512.65,295.4a2.07,2.07,0,1,1-2.06,2.07,2.07,2.07,0,0,1,2.06-2.07Zm-15.1,0a2.07,2.07,0,1,1-2.07,2.07,2.07,2.07,0,0,1,2.07-2.07Zm7.55,0a2.07,2.07,0,1,1-2.06,2.07A2.07,2.07,0,0,1,505.1,295.4Z" style="fill:#ecbe8d;fill-rule:evenodd"/><path d="M492.08,340.14V316.89a10.05,10.05,0,0,1,20.1,0v33a2.4,2.4,0,1,1-2.27,0v-33a7.78,7.78,0,0,0-15.56,0v23.22a10.07,10.07,0,0,1,9.06,10v9.08a4.28,4.28,0,0,1-3.47,4.18,1.65,1.65,0,0,1-1.64,1.6h0a1.65,1.65,0,0,1-1.65-1.65v-2a1.66,1.66,0,0,1,1.65-1.65h0a1.65,1.65,0,0,1,1.62,1.38,2.32,2.32,0,0,0,.64-.43,2,2,0,0,0,.58-1.4v-9.08a7.78,7.78,0,0,0-15.56,0v9.08a2,2,0,0,0,.58,1.4,2.32,2.32,0,0,0,.64.43,1.65,1.65,0,0,1,1.62-1.38h0a1.66,1.66,0,0,1,1.65,1.65v2a1.66,1.66,0,0,1-1.65,1.65h0a1.66,1.66,0,0,1-1.65-1.6,4.29,4.29,0,0,1-3.46-4.18v-9.08a10.08,10.08,0,0,1,8.77-10Z" style="fill:#1e1642;fill-rule:evenodd"/><path d="M498.32,362.77a.47.47,0,0,1-.46-.46.46.46,0,0,1,.46-.46h.84a2.7,2.7,0,0,0,2.66-2.66v-9.08a8.46,8.46,0,0,0-16.91,0v9.08a2.63,2.63,0,0,0,.77,1.87,2.69,2.69,0,0,0,1.88.79h.84a.46.46,0,0,1,.46.46.47.47,0,0,1-.46.46h-.84a3.59,3.59,0,0,1-2.53-1.06,3.54,3.54,0,0,1-1-2.52v-9.08a9.38,9.38,0,0,1,18.76,0v9.08a3.6,3.6,0,0,1-3.58,3.58Z" style="fill:#1e1642;fill-rule:evenodd"/><path d="M488.42,360.32h0a1,1,0,0,1,1,1v2a1,1,0,0,1-1,1h0a1,1,0,0,1-1-1v-2A1,1,0,0,1,488.42,360.32Z" style="fill:#1e1642"/><path d="M498.27,360.32h0a1,1,0,0,1,1,1v2a1,1,0,0,1-1,1h0a1,1,0,0,1-1-1v-2A1,1,0,0,1,498.27,360.32Z" style="fill:#1e1642"/><path d="M511,353.7a1.72,1.72,0,1,0-1.71-1.72A1.72,1.72,0,0,0,511,353.7Z" style="fill:#1e1642;fill-rule:evenodd"/><path d="M510.58,352V316.89a8.46,8.46,0,0,0-16.91,0v24.52h-.92V316.89a9.38,9.38,0,0,1,18.76,0V352Z" style="fill:#1e1642;fill-rule:evenodd"/><path d="M465.59,51.77a2.52,2.52,0,1,1,5,0V63.1a2.52,2.52,0,1,1-5,0V51.77ZM448.42,61A2.52,2.52,0,0,1,452,57.4l8,8A2.52,2.52,0,1,1,456.43,69l-8-8Zm-5.64,18.65a2.52,2.52,0,1,1,0-5h11.34a2.52,2.52,0,0,1,0,5ZM452,96.79a2.52,2.52,0,0,1-3.56-3.56l8-8A2.52,2.52,0,1,1,460,88.78l-8,8Zm18.65,5.64a2.52,2.52,0,0,1-5,0V91.09a2.52,2.52,0,1,1,5,0v11.34Zm17.17-9.2a2.52,2.52,0,0,1-3.56,3.56l-8-8a2.52,2.52,0,1,1,3.56-3.57l8,8Zm5.64-18.65a2.52,2.52,0,0,1,0,5H482.11a2.52,2.52,0,0,1,0-5Zm-9.2-17.18A2.52,2.52,0,0,1,487.8,61l-8,8a2.52,2.52,0,1,1-3.56-3.56Z" style="fill:#8dc7e0;fill-rule:evenodd"/><path d="M207.62,64.82h0c10.22,0,18.59,14.31,18.59,31.8v25.82c0,17.49-8.37,31.8-18.59,31.8h0c-10.23,0-18.6-14.31-18.6-31.8V96.62C189,79.13,197.39,64.82,207.62,64.82Z" style="fill:#dd9187;fill-rule:evenodd"/><path d="M212.49,132.5l-3,.36-1.86,1.27-1.87-1.27-3-.36L185,118.57l-38.55,13.17-1.92,37c2.88,36.76,11.5,95.7,11.5,98.55s-6.12,22.82-9.9,35H268.67c-3.78-12.14-9.89-32.1-9.89-35s9.05-61.79,11.93-98.55l-1.92-37-38.55-13.17Z" style="fill:#1e1642;fill-rule:evenodd"/><polygon points="211.77 136.93 212.6 141.35 221.01 250.94 207.62 279.42 194.22 250.94 202.63 141.35 203.46 136.93 207.62 139.62 211.77 136.93" style="fill:#145f91;fill-rule:evenodd"/><path d="M202.63,141.35l-3.93-8.61c3.4-3.19,14.43-3.19,17.83,0l-3.93,8.61A23,23,0,0,0,202.63,141.35Z" style="fill:#145f91;fill-rule:evenodd"/><path d="M229.66,117.36l32.49,9,3,3.4c.71.26,8.47,1.06,9.31,11.29.89,10.78-12.39,122.81-12.39,126.23s6.18,23,10,35.14H222.33L229,118.71A1.71,1.71,0,0,1,229.66,117.36Z" style="fill:#fff;fill-rule:evenodd"/><path d="M270.41,190h0l-20.33,37.32s-3.65,17.46-13.4,13.81c-1.75-.66-6.09-1.75-12-3.1l1.4-38.94h11.63s6.5.2,9.35-3.35,14.11-24.47,14.11-24.47Z" style="fill:#ebe8f3;fill-rule:evenodd"/><path d="M267.14,220.56c-2.67,24.41-5.05,45.28-5.05,46.72-18-6.54-23.88-10.2-30.79-9.29a18,18,0,0,0-7.49,3.41L225.42,217Z" style="fill:#ebe8f3;fill-rule:evenodd"/><path d="M185.57,117.36l-32.24,9-2.84,4c-.71.26-8.9.46-9.74,10.69-.89,10.78,12.39,122.81,12.39,126.23s-6.18,23-10,35.14H192.9l-6.63-183.71A1.73,1.73,0,0,0,185.57,117.36Z" style="fill:#fff;fill-rule:evenodd"/><path d="M144.3,185c1.25,12.15,2.67,25.29,4,37.45,10.2,2,26.29,5.11,42,8.29l-1.14-31.61c-4.74-.42-12.69-1.15-17.06-1.69a12,12,0,0,1-9-6.4l-7.34-21.32Z" style="fill:#ebe8f3;fill-rule:evenodd"/><path d="M148.84,227.34c1.66,15.15,3.13,28.22,3.84,35,1.51-2,3.76-3.92,6.64-3.56,3.88.5,21.65,2.17,32.12,3.14l-1.74-48-4.7-.4Z" style="fill:#ebe8f3;fill-rule:evenodd"/><path d="M200.59,206.79c-20-5.24-22.36-3.68-36.2,4.75-3,1.8-2.95,3.1-2.44,3.66,0,0-.74,2.29,1.16,3.32,0,0-3-1.07,1-.16,0,0-.34,1.61,2.45,1.84s9.54.42,9.54.42c3.87,3.19,14,8.68,21.33,5.12Z" style="fill:#eabfb9;fill-rule:evenodd"/><path d="M199.12,206.38l-3.21-.7c-1.63,4-6.18,16-8,20.71a14.43,14.43,0,0,0,9.59-.65Z" style="fill:#dd9187;fill-rule:evenodd"/><path d="M240.62,61.56l.72.13h0a9.91,9.91,0,1,1-8.28,1.94c-.27,2.92.17,6.54,3.9,6.93l-.07-5.71A3.41,3.41,0,0,1,240.62,61.56Z" style="fill:#dd9187;fill-rule:evenodd"/><path d="M175.35,61.55l-.72.12h0a9.91,9.91,0,1,0,8.25,2c.23,2.93-.26,6.54-4,6.88l.15-5.71A3.41,3.41,0,0,0,175.35,61.55Z" style="fill:#dd9187;fill-rule:evenodd"/><path d="M207.92,111.16c-18.49,0-33.91-22.82-33.91-40.83V46.41A34,34,0,0,1,207.92,12.5h0a34,34,0,0,1,33.9,33.91V69.83C241.82,89.57,228.37,111.16,207.92,111.16Z" style="fill:#eabfb9;fill-rule:evenodd"/><path d="M229.84,73.47a5.38,5.38,0,1,0,5.48,5.28A5.38,5.38,0,0,0,229.84,73.47Z" style="fill:#d7766d;fill-rule:evenodd"/><path d="M185.8,74.32a5.39,5.39,0,1,0,5.48,5.29A5.39,5.39,0,0,0,185.8,74.32Z" style="fill:#d7766d;fill-rule:evenodd"/><path d="M195.87,55a1.21,1.21,0,1,1-1,2.21,8,8,0,0,0-7.18.47,1.24,1.24,0,0,1-1.69-.39,1.23,1.23,0,0,1,.39-1.68A10.49,10.49,0,0,1,195.87,55Z" style="fill:#1e1642;fill-rule:evenodd"/><path d="M229.39,55.52a1.22,1.22,0,0,1-1.18,2.13,8,8,0,0,0-7.2-.13,1.22,1.22,0,0,1-1.13-2.16A10.51,10.51,0,0,1,229.39,55.52Z" style="fill:#1e1642;fill-rule:evenodd"/><path d="M208.83,72.18c.63,1.72,1.74,4.82,1.64,5.34-.13.73-3.88,1.4-4.87.45-.66-.64.16-3.44.87-5.33C207.44,70.07,208,69.87,208.83,72.18Z" style="fill:#f0d4d1;fill-rule:evenodd"/><path d="M215,85.73a7.13,7.13,0,1,1-14.25,0,1.31,1.31,0,0,1,1.31-1.31h11.63A1.31,1.31,0,0,1,215,85.73Z" style="fill:#1e1642;fill-rule:evenodd"/><path d="M202.82,84.42H213v1.21a1.15,1.15,0,0,1-1.14,1.14H204a1.15,1.15,0,0,1-1.15-1.14Z" style="fill:#fff;fill-rule:evenodd"/><ellipse cx="207.92" cy="90.64" rx="5.16" ry="2.22" style="fill:#d26070"/><path d="M191.33,69.73a4.09,4.09,0,1,0-4.08-4.09A4.1,4.1,0,0,0,191.33,69.73Z" style="fill:#1e1642;fill-rule:evenodd"/><path d="M224.5,69.73a4.09,4.09,0,1,0-4.08-4.09A4.09,4.09,0,0,0,224.5,69.73Z" style="fill:#1e1642;fill-rule:evenodd"/><path d="M145.5,247.6c-13.4-2.24-18.82-14.38-18-31.38S133.92,148,137.69,139s15.64-12.6,15.64-12.6c1.41,4.07,2,23.87,2,23.87L156.57,213l53.17,3.24,5.89,19.09-10,21.42s-.41,3.15-5.28,2.14S145.5,247.6,145.5,247.6Z" style="fill:#fff;fill-rule:evenodd"/><path d="M210.37,218.26l5.26,17.05-10,21.42s-.41,3.15-5.28,2.14L176.71,254a18,18,0,0,0,3.83-6.88l7.58-20.69,4.4-3.28C200.05,220.13,205.87,218.66,210.37,218.26Z" style="fill:#ebe8f3;fill-rule:evenodd"/><path d="M262.15,126.36S274,129.94,277.79,139s9.3,60.26,10.15,77.26-4.56,29.14-18,31.38-65.79,5.17-65.79,5.17-6.39,1.32-8.12-4.77,1.12-42.64,1.12-42.64-.1-2.34,2.74-2.39,59,10,59,10l1.21-62.75S260.73,130.43,262.15,126.36Z" style="fill:#fff;fill-rule:evenodd"/><path d="M258.91,213l-16.77-3,7.5-12.2,10.61-10.51s2-.2,2.13,1.47a19.42,19.42,0,0,1-.61,4.72l3.4-2.08a1.48,1.48,0,0,1,2.13,1.27c.41,2-1.72,5-1.72,5s2.48-.76,3.5.31-.66,6-2.95,7.06l2.76-.61s1.1.3.85,2.08-2.89,2.43-4.06,2.79Z" style="fill:#eabfb9;fill-rule:evenodd"/><polygon points="258.9 212.98 242.14 210 245.84 203.98 259.53 212.64 258.9 212.98" style="fill:#dd9187;fill-rule:evenodd"/><path d="M174,69.11s3.11-1.68,3.11-9.9-.51-10.76,3.86-14.93,4.46-8.12,4.46-8.12l-12.79-5.79s-6.4,3.35-6.3,9.45,4.55,23.46,4.55,23.46S174,64.1,174,69.11Z" style="fill:#1e1642;fill-rule:evenodd"/><path d="M241.82,69.11s-3.1-1.68-3.1-9.9.51-10.76-3.86-14.93-4.47-8.12-4.47-8.12l12.79-5.79s6.4,3.35,6.3,9.45-4.54,23.46-4.54,23.46S241.85,64.1,241.82,69.11Z" style="fill:#1e1642;fill-rule:evenodd"/><path d="M185.18,45.25a22.63,22.63,0,1,0-22.62-22.63A22.67,22.67,0,0,0,185.18,45.25Z" style="fill:#1e1642;fill-rule:evenodd"/><path d="M203.35,44.39A21.36,21.36,0,1,0,182,23,21.4,21.4,0,0,0,203.35,44.39Z" style="fill:#1e1642;fill-rule:evenodd"/><path d="M228.47,43.49a17.26,17.26,0,1,0-17.26-17.26A17.29,17.29,0,0,0,228.47,43.49Z" style="fill:#1e1642;fill-rule:evenodd"/><path d="M252.92,22.28c2,2.49,1,7.56-2.38,11.32s-7.7,4.79-9.74,2.3-1-7.56,2.38-11.32S250.89,19.79,252.92,22.28Z" style="fill:#1e1642;fill-rule:evenodd"/><path d="M218.86,1c2.91.05,5.8,3.73,6.46,8.24s-1.17,8.12-4.07,8.07-5.79-3.72-6.45-8.23S216,.94,218.86,1Z" style="fill:#1e1642;fill-rule:evenodd"/><path d="M226.21,111.45a6.29,6.29,0,0,1,2.16,0c.55.24,2.43,5.69,3.59,7.33a3.91,3.91,0,0,1,.28,3.61c-.77,2.26-10.9,20.83-10.9,20.83s-.71,1-1.88,0-10-12.82-10-12.82l16.73-15.35Z" style="fill:#36234d;fill-rule:evenodd"/><path d="M189,111.25a6.28,6.28,0,0,0-2.16,0c-.55.24-2.43,5.89-3.59,7.53a3.94,3.94,0,0,0-.28,3.61c.77,2.26,10.9,20.83,10.9,20.83s.72,1,1.88,0,10-12.82,10-12.82L189,115.07Z" style="fill:#36234d;fill-rule:evenodd"/><path d="M260.59,175.57a1,1,0,0,1-1,.93,1,1,0,0,1-.92-1c0-.12,1.26-39.45,5-48.6a1,1,0,1,1,1.77.72c-3.61,8.83-4.87,47.82-4.87,47.93Zm-103.84-2.5a1,1,0,1,1-1.91.09c0-.1-1.79-35.56-5.23-45.4a1,1,0,0,1,1.81-.63C155,137.23,156.75,173,156.75,173.07Z" style="fill:#ebe8f3;fill-rule:evenodd"/><path d="M188.25,179h.83l.1,0h.27l0,0h.11l.05,0h0l0,0h0l0,0h0l.05,0h0l0,0h0l0,0h0l0,0h0l0,0h.07l0,0h.05l0,0h0l0,0h0l0,0h0l0,0h0l0,0h0l0,0h0l0,0h0l0,0h0l0,0h0l0,0h0l0,0h0l0,0h0l0,0h0l0,0h0l0,0v0l0,0h0l0,0h0l0,0,0,0,0,0h0l0,0,0,0h0l0,0h0l0,0,0,0,0,0h0l0,0h0l0,0h0l0,0h0l0,0a4.7,4.7,0,0,0,1.38-3.32v-9.85h-1.06v-6.19a13.89,13.89,0,0,0-27.77,0v6.19h-1.07v9.85a4.66,4.66,0,0,0,1.39,3.32l0,0h0l0,0h0l0,0h0l0,0h0l0,0v0l0,0h0l0,0h0l0,0,0,0h0l0,0,0,0,0,0h0l0,0h0l0,0v0l0,0h0l0,0h0l0,0h0l0,0h0l0,0h0l.05,0h0l0,0h0l0,0h0l0,0h0l0,0h0l0,0h0l0,0h0l0,0h0l0,0h0l0,0h.05l0,0h.07l0,0h0l0,0h0l0,0h0l0,0h0l.05,0h0l0,0h0l.05,0h0l.06,0h.11l0,0h1.2v-1a1.73,1.73,0,0,1,1.72-1.73h.05a1.73,1.73,0,0,1,1.72,1.73v3.58a1.73,1.73,0,0,1-1.72,1.72h-.05a1.73,1.73,0,0,1-1.72-1.72v-1h-1l-.07,0h-.08l-.07,0h0l-.06,0h0l-.06,0h-.24l-.05,0h0l0,0h-.1l0,0h-.14l0,0h0l0,0h0l0,0h0l0,0h0l0,0h0l-.05,0h0l-.06,0h0l-.05,0h0l-.06,0h0l-.06,0h0l-.06,0h0l-.07,0h0l-.06,0h0l-.06,0h0l-.06,0h0l-.05,0h0l-.05,0h0l0,0h0l0,0h0l0,0h0l0,0,0,0,0,0,0,0,0,0,0,0,0,0,0,0,0,0,0,0,0,0,0,0,0,0,0,0,0,0,0,0h0l0,0h0l0,0h0l0,0h0l-.05,0h0l0-.05h0l0,0h0l-.05,0h0l-.06-.06a6.32,6.32,0,0,1-1.85-4.47v-9.85h-1.07v-6.19a17.71,17.71,0,0,1,15.39-17.5V135h4.21v5.66a17.72,17.72,0,0,1,15.68,17.54v6.19h-1.06v9.85a6.29,6.29,0,0,1-1.86,4.47l0,.06h0l-.05,0h0l-.05,0h0l0,.05h0l0,0h0l-.05,0h0l0,0h0l0,0h0l0,0,0,0,0,0,0,0,0,0,0,0,0,0,0,0,0,0,0,0,0,0,0,0,0,0,0,0,0,0,0,0h0l0,0h0l0,0h0l-.05,0h0l-.05,0h0l-.06,0h0l-.05,0h0l-.06,0h0l-.07,0h0l-.06,0h0l-.07,0h0l-.06,0h0l-.06,0h0l-.06,0h0l-.05,0h0l0,0h0l0,0h0l-.05,0h0l-.05,0h0l-.05,0h0l0,0h-.14l0,0H190l0,0h0l0,0h-.24l-.06,0h0l-.06,0h0l-.07,0h-.08l-.07,0h-1v1a1.73,1.73,0,0,1-1.73,1.72h0a1.73,1.73,0,0,1-1.73-1.72V178a1.74,1.74,0,0,1,1.73-1.73h0a1.74,1.74,0,0,1,1.73,1.73Z" style="fill:#36234d;fill-rule:evenodd"/><path d="M178.63,142a1,1,0,1,1-1.91,0v-17.5A18.24,18.24,0,0,1,189,107.36v2a16.39,16.39,0,0,0-5.59,3.66,16.19,16.19,0,0,0-4.77,11.46Z" style="fill:#36234d;fill-rule:evenodd"/><path d="M236.46,167.49a1,1,0,1,0,1.91,0v-43a18.21,18.21,0,0,0-12.27-17.16v2a16.39,16.39,0,0,1,5.59,3.66,16.19,16.19,0,0,1,4.77,11.46Z" style="fill:#36234d;fill-rule:evenodd"/><path d="M237.35,172.35a4.61,4.61,0,1,1,4.61-4.62A4.62,4.62,0,0,1,237.35,172.35Z" style="fill:#36234d;fill-rule:evenodd"/></g></g></svg>